<?xml version="1.0" encoding="UTF-8"?>
<!DOCTYPE svg PUBLIC "-//W3C//DTD SVG 1.1//EN" "http://www.w3.org/Graphics/SVG/1.1/DTD/svg11.dtd">
<!-- Creator: CorelDRAW -->
<svg xmlns="http://www.w3.org/2000/svg" xml:space="preserve" width="127.727mm" height="34.1228mm" style="shape-rendering:geometricPrecision; text-rendering:geometricPrecision; image-rendering:optimizeQuality; fill-rule:evenodd; clip-rule:evenodd"
viewBox="0 0 134.59 35.9563"
 xmlns:xlink="http://www.w3.org/1999/xlink">
 <defs>
  <style type="text/css">
   <![CDATA[
    .fil0 {fill:#0093DD}
    .fil1 {fill:#E77817}
    .fil2 {fill:#E77817;fill-rule:nonzero}
   ]]>
  </style>
 </defs>
 <g id="图层_x0020_1">
  <metadata id="CorelCorpID_0Corel-Layer"/>
  <polygon class="fil0" points="0.892721,7.17517 4.01113,7.17517 6.62439,19.3702 9.85123,7.32712 10.6748,7.32712 11.3281,7.32712 12.1517,7.32712 15.3786,19.3702 17.9918,7.17517 21.1102,7.17517 17.1381,23.4642 13.8107,23.4642 11.0015,14.4123 8.19224,23.4642 4.86487,23.4642 "/>
  <polygon class="fil0" points="23.1568,6.97454 27.0686,6.97454 27.0686,19.7494 32.1815,18.7433 32.1815,6.97454 36.0933,6.97454 36.0933,23.1798 32.1815,23.1798 32.1815,22.2684 27.0686,23.1798 23.1568,23.1798 "/>
  <polygon class="fil0" points="39.642,9.84407 51.3455,9.84407 51.3455,12.7377 39.642,12.7377 "/>
  <path class="fil0" d="M66.0071 7.5933l3.34381 0 0.0642776 0 0 16.0764 -3.40808 0 0 -1.0158 -10.8677 0.435718 0 -9.71003 10.8677 -0.435823 0 -2.19945 -11.4464 0 0 -3.15097 11.4464 0zm0 12.0383l0 -3.66541 -7.78096 0.311905 0 3.66541 7.78096 -0.311905z"/>
  <path class="fil0" d="M72.4808 7.08856l10.6654 0 0 -7.08856 3.38174 0 0 7.08856 0 3.44676 0 12.2262 -14.0472 0 0 -15.673zm3.34918 3.51188l7.34883 0 0 8.64935 -7.34883 0 0 -8.64935z"/>
  <polygon class="fil0" points="98.7871,7.23165 102.382,7.23165 102.382,8.49919 107.231,7.34999 107.231,7.23165 107.73,7.23165 107.939,7.18213 107.939,7.23165 110.826,7.23165 110.826,23.5976 107.231,23.5976 107.231,10.9454 102.382,12.0945 102.382,23.5976 98.7871,23.5976 98.7871,11.0443 94.1022,12.1547 94.1022,23.5976 90.5068,23.5976 90.5068,6.89983 94.1022,6.89983 94.1022,8.55936 98.7871,7.44893 "/>
  <path class="fil0" d="M114.476 1.3434l3.48638 0 0 4.49322 -3.48638 0 0 -4.49322zm3.48638 5.74621l0 16.4797 -3.48638 0 0 -16.4797 3.48638 0z"/>
  <polygon class="fil0" points="130.465,7.08961 133.952,7.08961 133.952,23.5693 130.465,23.5693 130.465,10.6355 124.935,12.0818 124.935,23.5693 121.449,23.5693 121.449,7.08961 124.935,7.08961 124.935,8.59529 130.465,7.14904 "/>
  <polygon class="fil1" points="-0,31.9157 42.0066,31.9157 42.0066,33.1801 -0,33.1801 "/>
  <polygon class="fil1" points="92.583,31.9157 134.59,31.9157 134.59,33.1801 92.583,33.1801 "/>
  <path class="fil2" d="M52.7716 29.438l-1.79556 6.4109 -0.964902 0 -1.29114 -4.61956c-0.0579552,-0.20906 -0.0918854,-0.429501 -0.10316,-0.661111l-0.0169651 0c-0.0169651,0.228871 -0.0551102,0.446361 -0.115805,0.654051l-1.30399 4.62662 -0.954997 0 -1.8591 -6.4109 0.915482 0 1.30673 4.84285c0.0579552,0.21749 0.0932552,0.436456 0.10453,0.656896l0.0240251 0c0.01412,-0.16533 0.0593251,-0.384296 0.136985,-0.656896l1.38587 -4.84285 0.815167 0 1.32517 4.87951c0.0437299,0.15964 0.0805051,0.364486 0.10727,0.613166l0.0169651 0c0.01412,-0.17945 0.0537403,-0.389986 0.120125,-0.630131l1.25731 -4.86255 0.889982 0zm4.94169 6.4109l-0.816537 0 0 -0.720436 -0.0155952 0c-0.306531,0.552366 -0.777022,0.827812 -1.41126,0.827812 -1.08503,0 -1.62749,-0.648466 -1.62749,-1.94529l0 -2.73928 0.803892 0 0 2.61916c0,0.929602 0.355951,1.39577 1.06659,1.39577 0.353105,0 0.639931,-0.1314 0.857527,-0.391251 0.21749,-0.261431 0.326341,-0.590511 0.326341,-0.987557l0 -2.63612 0.816537 0 0 4.5772zm12.275 0l-0.914007 0 -0.654051 -1.75457 -2.67005 0 -0.616011 1.75457 -0.915377 0 2.44255 -6.4109 0.885767 0 2.44118 6.4109zm-1.82517 -2.47933l-0.967747 -2.66573c-0.0310851,-0.0848254 -0.06354,-0.234561 -0.0989454,-0.446466l-0.02118 0c-0.0310851,0.19357 -0.0649099,0.341936 -0.103055,0.446466l-0.960687 2.66573 2.15161 0zm6.95326 2.47933l-0.810846 0 0 -0.761426 -0.0169651 0c-0.333401,0.579236 -0.851837,0.868802 -1.55541,0.868802 -0.579236,0 -1.04119,-0.206215 -1.38302,-0.618751 -0.341936,-0.412536 -0.512851,-0.969117 -0.512851,-1.66985 0,-0.755842 0.19357,-1.36184 0.579236,-1.81958 0.387141,-0.456266 0.891457,-0.683766 1.51442,-0.683766 0.624441,0 1.07649,0.241621 1.35763,0.727602l0.0169651 0 0 -2.81842 0.810846 0 0 6.77539zm-0.806632 -2.72369c0,-0.367331 -0.121495,-0.673861 -0.361641,-0.921067 -0.241621,-0.245836 -0.539616,-0.370176 -0.892827,-0.370176 -0.429501,0 -0.769962,0.161116 -1.01717,0.483136 -0.248575,0.320756 -0.372916,0.758687 -0.372916,1.3139 0,0.509901 0.11865,0.914007 0.357426,1.21063 0.23867,0.296731 0.556581,0.444991 0.954997,0.444991 0.391251,0 0.710531,-0.14552 0.959212,-0.437931 0.248575,-0.291041 0.372916,-0.652681 0.372916,-1.0864l0 -0.637086zm8.83649 2.72369l-0.810846 0 0 -2.62759c0,-0.497361 -0.0777654,-0.851942 -0.233085,-1.06669 -0.154056,-0.213275 -0.408321,-0.320651 -0.761532,-0.320651 -0.297995,0 -0.552366,0.13983 -0.765641,0.418121 -0.211905,0.278396 -0.317911,0.608951 -0.317911,0.988927l0 2.60788 -0.810846 0 0 -2.71094c0,-0.868907 -0.336246,-1.30399 -1.00589,-1.30399 -0.309376,0 -0.565011,0.13277 -0.768486,0.396941 -0.202,0.265646 -0.303685,0.603261 -0.303685,1.01443l0 2.60356 -0.810952 0 0 -4.5772 0.810952 0 0 0.723387 0.0168597 0c0.324971,-0.553841 0.801047,-0.830762 1.42686,-0.830762 0.306636,0 0.577866,0.0833502 0.812322,0.251526 0.234561,0.16807 0.397046,0.396941 0.487351,0.683766 0.340461,-0.624441 0.847727,-0.935292 1.52296,-0.935292 1.00726,0 1.51158,0.620226 1.51158,1.86194l0 2.82263zm1.24456 -6.19194c0,-0.142675 0.04942,-0.264171 0.14689,-0.361641 0.0989454,-0.09884 0.219071,-0.14689 0.363116,-0.14689 0.14552,0 0.269861,0.0480502 0.370176,0.144045 0.100315,0.0974702 0.151105,0.218965 0.151105,0.364486 0,0.14415 -0.0507899,0.262801 -0.151105,0.358901 -0.100315,0.0946251 -0.224656,0.142675 -0.370176,0.142675 -0.14689,0 -0.268385,-0.0480502 -0.364486,-0.142675 -0.0961003,-0.0961003 -0.14552,-0.21475 -0.14552,-0.358901zm0.0961003 6.19194l0 -4.5772 0.810846 0 0 4.5772 -0.810846 0zm6.46032 0l-0.806632 0 0 -2.60356c0,-0.940877 -0.343306,-1.41137 -1.03129,-1.41137 -0.356056,0 -0.648466,0.13277 -0.877337,0.396941 -0.228871,0.265646 -0.343306,0.600416 -0.343306,1.00589l0 2.6121 -0.810846 0 0 -4.5772 0.810846 0 0 0.757212 0.0169651 0c0.344676,-0.576391 0.844777,-0.864587 1.50167,-0.864587 0.502946,0 0.884397,0.15964 1.1472,0.481766 0.261325,0.320651 0.392726,0.789666 0.392726,1.40568l0 2.79713z"/>
  <polygon class="fil1" points="58.9323,33.4445 63.3746,33.4445 63.3746,34.2189 58.9323,34.2189 "/>
 </g>
</svg>
